<?xml version="1.0" encoding="UTF-8"?>
<svg id="Layer_1" data-name="Layer 1" xmlns="http://www.w3.org/2000/svg" viewBox="0 0 356.81 351.37">
  <defs>
    <style>
      .cls-1 {
        fill: #4c2a96;
      }
    </style>
  </defs>
  <g>
    <path class="cls-1" d="M303.31,65.66c-11.15-30.28-39.67-50.37-72.36-48.48-3.03.18-14.16,2.85-15.39,2.59-1.37-.28-7.44-4.85-9.6-5.97C175.44-1.97,140.82,1.51,117.43,27.55c-25.61-4.29-52.42,5.16-66.21,27.73-1.7,2.79-5.14,12.45-6.03,13.37-.87.89-5.91,2.29-7.84,3.34-60.29,32.75-43.95,117.81,22.98,125.87,6.23,12.34,30.25,25.8,43.61,22.76,6.09-1.39,5.74-12.4-.72-13.81-4.73-1.04-8.69-.24-14.16-2.25-2.11-.78-15.23-7.87-12.92-10.58,10.22.09,11.2-15.76,1.22-14.89-3.92.34-8.29,4.01-13.49,4.48-16.93,1.53-34.5-11.15-42.79-25.17-15.72-26.57-4.02-60.58,22.97-74.07.06,14.29,6.97,26.76,16.31,37.04-3.91,6.26-16.06,23.85-2.31,26.21,8.04,1.38,7.73-7.1,11.07-12.47,4.13-6.64,11.78-11.49,19.53-12.55,4.26-.58,8.68.42,12.89-.56,5.79-1.35,5.82-9.85.66-12.63-2.35-1.27-11.99-.61-15.03-.23-5.05.65-9.47,2.65-14.22,4.18-29.8-24.95-11.41-69.24,25.31-72.92,8.21-.82,14.33,1.14,21.58,1.43,6.21.24,9.22-6.96,13.75-10.84,15.23-13.05,37.62-16.71,56.34-9.33l10.05,4.85c-15.03,6.77-36.13,28.94-33.81,46.51.9,6.83,9.67,9.28,12.86,4.16,1.43-2.28,1.86-10.49,3.8-14.86,15.57-35.33,73.13-42.14,96.62-10.81l7.08,11.19c-19.57-2.05-38.44,1.98-54.06,14.2-5.81,4.53-21.19,19.21-14.22,26.86,8.16,8.97,13.73-6.6,17.92-11.23,14.98-16.53,42.83-20.11,63.24-13.24,23.26,7.83,40.61,31.15,43.07,55.41.32,3.21-.75,6.77.73,9.7l-1.48.75c-2.84-6.58-26.92-22.21-29.66-10.31-2.16,9.39,6.65,8.98,12.45,12.59,5.97,3.71,11.3,10.99,13.85,17.48,11.76,29.94-13.83,62.2-45.12,58.9,36.43-31.55,15.78-95.85-32.42-99.23-32.61-2.28-67.86,1.8-100.76,0-55.72,5.97-70.43,78.72-21.92,107.01,21.9,12.78,47.31,7.59,71.55,8.64v26.48c0,3.67,8.65,6.49,11.74,4.28l55.96-35.1c39.47,11,80.6-18.04,77.75-60.17-.22-3.27-1.6-7.19-1.54-10.45.1-4.78,2.67-11.69,3.04-17.17,2.38-35.61-19.32-70.94-53.32-82.42ZM276.31,219.93l-53.2,32.96v-20.51c0-1.24-3.59-5.94-5.63-5.55-30.09-1.93-68.08,8.51-87.34-21.58-17.83-27.87.24-64.7,32.89-67.26,30.94-2.42,64.99,1.86,96.26.03,41.58,6.5,52.29,58.87,17.02,81.91Z"/>
    <path class="cls-1" d="M246.65,297.68l-73.84-.08c-7.31-2.11-7.32-11.21.12-13.21l72.9-.13c7.21,1.14,7.67,12.53.83,13.42Z"/>
    <path class="cls-1" d="M152.45,107.27c-8.81,1.99-10.09-8.88-14.4-14.37-5.37-6.83-15.82-12.9-24.32-14.47-3.58-.66-9.28-.14-12.19-1.98-4.96-3.15-3.41-10.9,1.99-12.12,13.93-3.12,33.77,6.91,43.12,16.99,4.38,4.7,17.96,23.21,5.8,25.95Z"/>
    <path class="cls-1" d="M237.62,322.23h-55.86c-7.03-1.12-7.94-12.22-.75-13.35,17.84.83,36.73-1.14,54.41-.38,9.18.4,10.36,10.65,2.2,13.72Z"/>
    <path class="cls-1" d="M227.92,346.09c-5.41.86-28.78.83-34.23,0-7.37-1.13-8.86-10.66-1.39-13.22h36.99c6.68,2.04,5.25,12.18-1.38,13.23Z"/>
    <path class="cls-1" d="M206.36,188.69c-6.42-1.05-8.38-10.13-3.89-14.62,1.44-1.44,4.77-2.58,6.81-2.52,10.82.33,11.74,19.54-2.92,17.14Z"/>
    <path class="cls-1" d="M246.28,188.4c-13.22,4.1-16.24-14.44-5.46-16.65,11.59-2.37,14,14,5.46,16.65Z"/>
    <path class="cls-1" d="M178.56,188.56c-13.6,2.79-14.66-14.77-4.13-16.82,11.04-2.14,14.05,14.79,4.13,16.82Z"/>
  </g>
  <path class="cls-1" d="M113.73,78.43c-3.58-.66-9.28-.14-12.19-1.98-4.96-3.15-3.41-10.9,1.99-12.12,13.93-3.12,33.77,6.91,43.12,16.99,4.38,4.7,17.96,23.21,5.8,25.95-8.81,1.99-10.09-8.88-14.4-14.37-5.37-6.83-15.82-12.9-24.32-14.47Z"/>
  <path class="cls-1" d="M227.92,346.09c-5.41.86-28.78.83-34.23,0-7.37-1.13-8.86-10.66-1.39-13.22h36.99c6.68,2.04,5.25,12.18-1.38,13.23Z"/>
  <path class="cls-1" d="M237.62,322.23h-55.86c-7.03-1.12-7.94-12.22-.75-13.35,17.84.83,36.73-1.14,54.41-.38,9.18.4,10.36,10.65,2.2,13.72Z"/>
  <path class="cls-1" d="M246.65,297.68l-73.84-.08c-7.31-2.11-7.32-11.21.12-13.21l72.9-.13c7.21,1.14,7.67,12.53.83,13.42Z"/>
  <path class="cls-1" d="M178.56,188.56c-13.6,2.79-14.66-14.77-4.13-16.82,11.04-2.14,14.05,14.79,4.13,16.82Z"/>
  <path class="cls-1" d="M206.36,188.69c-6.42-1.05-8.38-10.13-3.89-14.62,1.44-1.44,4.77-2.58,6.81-2.52,10.82.33,11.74,19.54-2.92,17.14Z"/>
  <path class="cls-1" d="M246.28,188.4c-13.22,4.1-16.24-14.44-5.46-16.65,11.59-2.37,14,14,5.46,16.65Z"/>
  <path class="cls-1" d="M303.31,65.66c-11.15-30.28-39.67-50.37-72.36-48.48-3.03.18-14.16,2.85-15.39,2.59-1.37-.28-7.44-4.85-9.6-5.97C175.44-1.97,140.82,1.51,117.43,27.55c-25.61-4.29-52.42,5.16-66.21,27.73-1.7,2.79-5.14,12.45-6.03,13.37-.87.89-5.91,2.29-7.84,3.34-60.29,32.75-43.95,117.81,22.98,125.87,6.23,12.34,30.25,25.8,43.61,22.76,6.09-1.39,5.74-12.4-.72-13.81-4.73-1.04-8.69-.24-14.16-2.25-2.11-.78-15.23-7.87-12.92-10.58,10.22.09,11.2-15.76,1.22-14.89-3.92.34-8.29,4.01-13.49,4.48-16.93,1.53-34.5-11.15-42.79-25.17-15.72-26.57-4.02-60.58,22.97-74.07.06,14.29,6.97,26.76,16.31,37.04-3.91,6.26-16.06,23.85-2.31,26.21,8.04,1.38,7.73-7.1,11.07-12.47,4.13-6.64,11.78-11.49,19.53-12.55,4.26-.58,8.68.42,12.89-.56,5.79-1.35,5.82-9.85.66-12.63-2.35-1.27-11.99-.61-15.03-.23-5.05.65-9.47,2.65-14.22,4.18-29.8-24.95-11.41-69.24,25.31-72.92,8.21-.82,14.33,1.14,21.58,1.43,6.21.24,9.22-6.96,13.75-10.84,15.23-13.05,37.62-16.71,56.34-9.33l10.05,4.85c-15.03,6.77-36.13,28.94-33.81,46.51.9,6.83,9.67,9.28,12.86,4.16,1.43-2.28,1.86-10.49,3.8-14.86,15.57-35.33,73.13-42.14,96.62-10.81l7.08,11.19c-19.57-2.05-38.44,1.98-54.06,14.2-5.81,4.53-21.19,19.21-14.22,26.86,8.16,8.97,13.73-6.6,17.92-11.23,14.98-16.53,42.83-20.11,63.24-13.24,23.26,7.83,40.61,31.15,43.07,55.41.32,3.21-.75,6.77.73,9.7l-1.48.75c-2.84-6.58-26.92-22.21-29.66-10.31-2.16,9.39,6.65,8.98,12.45,12.59,5.97,3.71,11.3,10.99,13.85,17.48,11.76,29.94-13.83,62.2-45.12,58.9,36.43-31.55,15.78-95.85-32.42-99.23-32.61-2.28-67.86,1.8-100.76,0-55.72,5.97-70.43,78.72-21.92,107.01,21.9,12.78,47.31,7.59,71.55,8.64v26.48c0,3.67,8.65,6.49,11.74,4.28l55.96-35.1c39.47,11,80.6-18.04,77.75-60.17-.22-3.27-1.6-7.19-1.54-10.45.1-4.78,2.67-11.69,3.04-17.17,2.38-35.61-19.32-70.94-53.32-82.42ZM276.31,219.93l-53.2,32.96v-20.51c0-1.24-3.59-5.94-5.63-5.55-30.09-1.93-68.08,8.51-87.34-21.58-17.83-27.87.24-64.7,32.89-67.26,30.94-2.42,64.99,1.86,96.26.03,41.58,6.5,52.29,58.87,17.02,81.91Z"/>
</svg>