<?xml version="1.0" encoding="UTF-8"?>
<svg xmlns="http://www.w3.org/2000/svg" viewBox="0 0 351.37 351.37">
  <defs>
    <style>
      .cls-1 {
        fill: #fff;
      }

      .cls-2 {
        fill: #4c2a96;
      }
    </style>
  </defs>
  <g id="Layer_2" data-name="Layer 2">
    <circle class="cls-2" cx="175.68" cy="175.68" r="175.68"/>
  </g>
  <g id="Layer_1" data-name="Layer 1">
    <g>
      <g>
        <path class="cls-1" d="M263.65,98.2c-7.85-21.31-27.92-35.45-50.93-34.12-2.13.13-9.97,2.01-10.83,1.82-.96-.2-5.23-3.42-6.76-4.2-21.49-11.1-45.85-8.65-62.31,9.67-18.03-3.02-36.89,3.63-46.6,19.51-1.2,1.96-3.62,8.76-4.24,9.41-.61.62-4.16,1.61-5.52,2.35-42.43,23.05-30.93,82.91,16.18,88.59,4.38,8.68,21.29,18.16,30.7,16.02,4.29-.98,4.04-8.73-.51-9.72-3.33-.73-6.12-.17-9.97-1.59-1.49-.55-10.72-5.54-9.09-7.45,7.19.06,7.88-11.09.86-10.48-2.76.24-5.84,2.82-9.49,3.15-11.92,1.08-24.28-7.85-30.11-17.71-11.06-18.7-2.83-42.63,16.17-52.13.04,10.06,4.9,18.83,11.48,26.07-2.75,4.41-11.3,16.79-1.63,18.45,5.66.97,5.44-4.99,7.79-8.78,2.9-4.67,8.29-8.09,13.74-8.83,3-.41,6.11.29,9.07-.39,4.08-.95,4.1-6.93.46-8.89-1.66-.89-8.44-.43-10.58-.16-3.56.46-6.66,1.87-10.01,2.94-20.97-17.56-8.03-48.73,17.81-51.32,5.78-.58,10.09.8,15.19,1,4.37.17,6.49-4.9,9.68-7.63,10.72-9.18,26.48-11.76,39.65-6.57l7.07,3.42c-10.58,4.76-25.43,20.37-23.79,32.73.63,4.81,6.8,6.53,9.05,2.93,1-1.61,1.31-7.38,2.67-10.46,10.96-24.87,51.47-29.66,68-7.61l4.98,7.88c-13.78-1.45-27.06,1.4-38.05,10-4.09,3.19-14.91,13.52-10.01,18.9,5.74,6.31,9.67-4.64,12.61-7.91,10.54-11.64,30.14-14.16,44.51-9.32,16.37,5.51,28.58,21.92,30.31,38.99.22,2.26-.53,4.76.51,6.83l-1.04.53c-2-4.63-18.95-15.63-20.88-7.25-1.52,6.61,4.68,6.32,8.76,8.86,4.2,2.61,7.95,7.74,9.75,12.3,8.28,21.07-9.74,43.78-31.76,41.46,25.64-22.2,11.1-67.46-22.82-69.84-22.95-1.61-47.76,1.27-70.92,0-39.22,4.2-49.57,55.4-15.43,75.32,15.41,8.99,33.3,5.35,50.36,6.08v18.64c0,2.58,6.09,4.57,8.26,3.01l39.39-24.71c27.78,7.74,56.73-12.7,54.72-42.35-.15-2.3-1.13-5.06-1.09-7.35.07-3.37,1.88-8.23,2.14-12.09,1.68-25.06-13.59-49.93-37.53-58ZM244.64,206.77l-37.44,23.2v-14.44c0-.87-2.53-4.18-3.96-3.91-21.18-1.36-47.92,5.99-61.47-15.19-12.55-19.61.17-45.54,23.15-47.33,21.77-1.7,45.74,1.31,67.75.02,29.27,4.57,36.8,41.44,11.98,57.65Z"/>
        <path class="cls-1" d="M223.77,261.49l-51.97-.06c-5.14-1.49-5.15-7.89.08-9.29l51.31-.09c5.07.8,5.4,8.82.58,9.44Z"/>
        <path class="cls-1" d="M157.47,127.49c-6.2,1.4-7.1-6.25-10.14-10.12-3.78-4.81-11.13-9.08-17.12-10.19-2.52-.46-6.53-.1-8.58-1.4-3.49-2.22-2.4-7.67,1.4-8.53,9.81-2.2,23.77,4.86,30.35,11.96,3.08,3.31,12.64,16.34,4.08,18.27Z"/>
        <path class="cls-1" d="M217.41,278.77h-39.32c-4.95-.79-5.59-8.6-.53-9.39,12.56.58,25.85-.8,38.29-.27,6.46.28,7.29,7.5,1.55,9.66Z"/>
        <path class="cls-1" d="M210.59,295.56c-3.81.6-20.26.58-24.09,0-5.18-.79-6.24-7.51-.98-9.3h26.03c4.7,1.44,3.7,8.57-.97,9.31Z"/>
        <path class="cls-1" d="M195.41,184.79c-4.52-.74-5.9-7.13-2.74-10.29,1.01-1.01,3.36-1.82,4.79-1.77,7.62.23,8.26,13.76-2.06,12.07Z"/>
        <path class="cls-1" d="M223.51,184.59c-9.3,2.88-11.43-10.16-3.84-11.72,8.16-1.67,9.86,9.86,3.84,11.72Z"/>
        <path class="cls-1" d="M175.84,184.7c-9.57,1.96-10.32-10.4-2.9-11.84,7.77-1.51,9.89,10.41,2.9,11.84Z"/>
      </g>
      <path class="cls-1" d="M130.22,107.19c-2.52-.46-6.53-.1-8.58-1.4-3.49-2.22-2.4-7.67,1.4-8.53,9.81-2.2,23.77,4.86,30.35,11.96,3.08,3.31,12.64,16.34,4.08,18.27-6.2,1.4-7.1-6.25-10.14-10.12-3.78-4.81-11.13-9.08-17.12-10.19Z"/>
      <path class="cls-1" d="M210.59,295.56c-3.81.6-20.26.58-24.09,0-5.18-.79-6.24-7.51-.98-9.3h26.03c4.7,1.44,3.7,8.57-.97,9.31Z"/>
      <path class="cls-1" d="M217.41,278.77h-39.32c-4.95-.79-5.59-8.6-.53-9.39,12.56.58,25.85-.8,38.29-.27,6.46.28,7.29,7.5,1.55,9.66Z"/>
      <path class="cls-1" d="M223.77,261.49l-51.97-.06c-5.14-1.49-5.15-7.89.08-9.29l51.31-.09c5.07.8,5.4,8.82.58,9.44Z"/>
      <path class="cls-1" d="M175.84,184.7c-9.57,1.96-10.32-10.4-2.9-11.84,7.77-1.51,9.89,10.41,2.9,11.84Z"/>
      <path class="cls-1" d="M195.41,184.79c-4.52-.74-5.9-7.13-2.74-10.29,1.01-1.01,3.36-1.82,4.79-1.77,7.62.23,8.26,13.76-2.06,12.07Z"/>
      <path class="cls-1" d="M223.51,184.59c-9.3,2.88-11.43-10.16-3.84-11.72,8.16-1.67,9.86,9.86,3.84,11.72Z"/>
      <path class="cls-1" d="M263.65,98.2c-7.85-21.31-27.92-35.45-50.93-34.12-2.13.13-9.97,2.01-10.83,1.82-.96-.2-5.23-3.42-6.76-4.2-21.49-11.1-45.85-8.65-62.31,9.67-18.03-3.02-36.89,3.63-46.6,19.51-1.2,1.96-3.62,8.76-4.24,9.41-.61.62-4.16,1.61-5.52,2.35-42.43,23.05-30.93,82.91,16.18,88.59,4.38,8.68,21.29,18.16,30.7,16.02,4.29-.98,4.04-8.73-.51-9.72-3.33-.73-6.12-.17-9.97-1.59-1.49-.55-10.72-5.54-9.09-7.45,7.19.06,7.88-11.09.86-10.48-2.76.24-5.84,2.82-9.49,3.15-11.92,1.08-24.28-7.85-30.11-17.71-11.06-18.7-2.83-42.63,16.17-52.13.04,10.06,4.9,18.83,11.48,26.07-2.75,4.41-11.3,16.79-1.63,18.45,5.66.97,5.44-4.99,7.79-8.78,2.9-4.67,8.29-8.09,13.74-8.83,3-.41,6.11.29,9.07-.39,4.08-.95,4.1-6.93.46-8.89-1.66-.89-8.44-.43-10.58-.16-3.56.46-6.66,1.87-10.01,2.94-20.97-17.56-8.03-48.73,17.81-51.32,5.78-.58,10.09.8,15.19,1,4.37.17,6.49-4.9,9.68-7.63,10.72-9.18,26.48-11.76,39.65-6.57l7.07,3.42c-10.58,4.76-25.43,20.37-23.79,32.73.63,4.81,6.8,6.53,9.05,2.93,1-1.61,1.31-7.38,2.67-10.46,10.96-24.87,51.47-29.66,68-7.61l4.98,7.88c-13.78-1.45-27.06,1.4-38.05,10-4.09,3.19-14.91,13.52-10.01,18.9,5.74,6.31,9.67-4.64,12.61-7.91,10.54-11.64,30.14-14.16,44.51-9.32,16.37,5.51,28.58,21.92,30.31,38.99.22,2.26-.53,4.76.51,6.83l-1.04.53c-2-4.63-18.95-15.63-20.88-7.25-1.52,6.61,4.68,6.32,8.76,8.86,4.2,2.61,7.95,7.74,9.75,12.3,8.28,21.07-9.74,43.78-31.76,41.46,25.64-22.2,11.1-67.46-22.82-69.84-22.95-1.61-47.76,1.27-70.92,0-39.22,4.2-49.57,55.4-15.43,75.32,15.41,8.99,33.3,5.35,50.36,6.08v18.64c0,2.58,6.09,4.57,8.26,3.01l39.39-24.71c27.78,7.74,56.73-12.7,54.72-42.35-.15-2.3-1.13-5.06-1.09-7.35.07-3.37,1.88-8.23,2.14-12.09,1.68-25.06-13.59-49.93-37.53-58ZM244.64,206.77l-37.44,23.2v-14.44c0-.87-2.53-4.18-3.96-3.91-21.18-1.36-47.92,5.99-61.47-15.19-12.55-19.61.17-45.54,23.15-47.33,21.77-1.7,45.74,1.31,67.75.02,29.27,4.57,36.8,41.44,11.98,57.65Z"/>
    </g>
  </g>
</svg>